ISO-10303-21;
HEADER;
FILE_DESCRIPTION(('ViewDefinition [CoordinationView]'),'2;1');
FILE_NAME('repro.ifc','1970-01-01T00:00:00',(''),(''),'repro','repro','');
FILE_SCHEMA(('IFC4'));
ENDSEC;
DATA;
#1=IFCCARTESIANPOINT((0.,0.,0.));
#2=IFCAXIS2PLACEMENT3D(#1,$,$);
#3=IFCGEOMETRICREPRESENTATIONCONTEXT($,'Model',3,1.0E-5,#2,$);
#4=IFCSIUNIT(*,.LENGTHUNIT.,.MILLI.,.METRE.);
#5=IFCSIUNIT(*,.PLANEANGLEUNIT.,$,.RADIAN.);
#6=IFCUNITASSIGNMENT((#4,#5));
#7=IFCLOCALPLACEMENT($,#2);
#8=IFCLOCALPLACEMENT(#7,#2);
#9=IFCLOCALPLACEMENT(#8,#2);
#10=IFCCARTESIANPOINTLIST3D(((-200.,-100.,6.),(200.,-100.,6.),(200.,100.,6.),(-200.,100.,6.),(-132.,12.,6.),(-108.,12.,6.),(-108.,-12.,6.),(-132.,-12.,6.),(108.,12.,6.),(132.,12.,6.),(132.,-12.,6.),(108.,-12.,6.),(-200.,-100.,-6.),(200.,-100.,-6.),(200.,100.,-6.),(-200.,100.,-6.),(-132.,12.,-6.),(-108.,12.,-6.),(-108.,-12.,-6.),(-132.,-12.,-6.),(108.,12.,-6.),(132.,12.,-6.),(132.,-12.,-6.),(108.,-12.,-6.)));
#11=IFCINDEXEDPOLYGONALFACE((1,2,14,13));
#12=IFCINDEXEDPOLYGONALFACE((2,3,15,14));
#13=IFCINDEXEDPOLYGONALFACE((3,4,16,15));
#14=IFCINDEXEDPOLYGONALFACE((4,1,13,16));
#15=IFCINDEXEDPOLYGONALFACE((7,12,9));
#16=IFCINDEXEDPOLYGONALFACE((11,8,1));
#17=IFCINDEXEDPOLYGONALFACE((4,1,8));
#18=IFCINDEXEDPOLYGONALFACE((6,7,9));
#19=IFCINDEXEDPOLYGONALFACE((11,1,2));
#20=IFCINDEXEDPOLYGONALFACE((4,8,5));
#21=IFCINDEXEDPOLYGONALFACE((10,11,2));
#22=IFCINDEXEDPOLYGONALFACE((3,4,5));
#23=IFCINDEXEDPOLYGONALFACE((10,2,3));
#24=IFCINDEXEDPOLYGONALFACE((3,5,6));
#25=IFCINDEXEDPOLYGONALFACE((9,10,3));
#26=IFCINDEXEDPOLYGONALFACE((3,6,9));
#27=IFCINDEXEDPOLYGONALFACE((21,24,19));
#28=IFCINDEXEDPOLYGONALFACE((13,20,23));
#29=IFCINDEXEDPOLYGONALFACE((20,13,16));
#30=IFCINDEXEDPOLYGONALFACE((21,19,18));
#31=IFCINDEXEDPOLYGONALFACE((14,13,23));
#32=IFCINDEXEDPOLYGONALFACE((17,20,16));
#33=IFCINDEXEDPOLYGONALFACE((14,23,22));
#34=IFCINDEXEDPOLYGONALFACE((17,16,15));
#35=IFCINDEXEDPOLYGONALFACE((15,14,22));
#36=IFCINDEXEDPOLYGONALFACE((18,17,15));
#37=IFCINDEXEDPOLYGONALFACE((15,22,21));
#38=IFCINDEXEDPOLYGONALFACE((21,18,15));
#39=IFCINDEXEDPOLYGONALFACE((5,6,18,17));
#40=IFCINDEXEDPOLYGONALFACE((6,7,19,18));
#41=IFCINDEXEDPOLYGONALFACE((7,8,20,19));
#42=IFCINDEXEDPOLYGONALFACE((8,5,17,20));
#43=IFCINDEXEDPOLYGONALFACE((9,10,22,21));
#44=IFCINDEXEDPOLYGONALFACE((10,11,23,22));
#45=IFCINDEXEDPOLYGONALFACE((11,12,24,23));
#46=IFCINDEXEDPOLYGONALFACE((12,9,21,24));
#47=IFCPOLYGONALFACESET(#10,.T.,(#11,#12,#13,#14,#15,#16,#17,#18,#19,#20,#21,#22,#23,#24,#25,#26,#27,#28,#29,#30,#31,#32,#33,#34,#35,#36,#37,#38,#39,#40,#41,#42,#43,#44,#45,#46),$);
#48=IFCSHAPEREPRESENTATION(#3,'Body','Tessellation',(#47));
#49=IFCREPRESENTATIONMAP(#2,#48);
#50=IFCCARTESIANPOINTLIST3D(((-200.,-100.,6.),(200.,-100.,6.),(200.,100.,6.),(-200.,100.,6.),(-52.,12.,6.),(-28.,12.,6.),(-28.,-12.,6.),(-52.,-12.,6.),(28.,12.,6.),(52.,12.,6.),(52.,-12.,6.),(28.,-12.,6.),(-200.,-100.,-6.),(200.,-100.,-6.),(200.,100.,-6.),(-200.,100.,-6.),(-52.,12.,-6.),(-28.,12.,-6.),(-28.,-12.,-6.),(-52.,-12.,-6.),(28.,12.,-6.),(52.,12.,-6.),(52.,-12.,-6.),(28.,-12.,-6.)));
#51=IFCINDEXEDPOLYGONALFACE((1,2,14,13));
#52=IFCINDEXEDPOLYGONALFACE((2,3,15,14));
#53=IFCINDEXEDPOLYGONALFACE((3,4,16,15));
#54=IFCINDEXEDPOLYGONALFACE((4,1,13,16));
#55=IFCINDEXEDPOLYGONALFACE((7,12,9));
#56=IFCINDEXEDPOLYGONALFACE((11,8,1));
#57=IFCINDEXEDPOLYGONALFACE((4,1,8));
#58=IFCINDEXEDPOLYGONALFACE((6,7,9));
#59=IFCINDEXEDPOLYGONALFACE((11,1,2));
#60=IFCINDEXEDPOLYGONALFACE((4,8,5));
#61=IFCINDEXEDPOLYGONALFACE((10,11,2));
#62=IFCINDEXEDPOLYGONALFACE((3,4,5));
#63=IFCINDEXEDPOLYGONALFACE((10,2,3));
#64=IFCINDEXEDPOLYGONALFACE((3,5,6));
#65=IFCINDEXEDPOLYGONALFACE((9,10,3));
#66=IFCINDEXEDPOLYGONALFACE((3,6,9));
#67=IFCINDEXEDPOLYGONALFACE((21,24,19));
#68=IFCINDEXEDPOLYGONALFACE((13,20,23));
#69=IFCINDEXEDPOLYGONALFACE((20,13,16));
#70=IFCINDEXEDPOLYGONALFACE((21,19,18));
#71=IFCINDEXEDPOLYGONALFACE((14,13,23));
#72=IFCINDEXEDPOLYGONALFACE((17,20,16));
#73=IFCINDEXEDPOLYGONALFACE((14,23,22));
#74=IFCINDEXEDPOLYGONALFACE((17,16,15));
#75=IFCINDEXEDPOLYGONALFACE((15,14,22));
#76=IFCINDEXEDPOLYGONALFACE((18,17,15));
#77=IFCINDEXEDPOLYGONALFACE((15,22,21));
#78=IFCINDEXEDPOLYGONALFACE((21,18,15));
#79=IFCINDEXEDPOLYGONALFACE((5,6,18,17));
#80=IFCINDEXEDPOLYGONALFACE((6,7,19,18));
#81=IFCINDEXEDPOLYGONALFACE((7,8,20,19));
#82=IFCINDEXEDPOLYGONALFACE((8,5,17,20));
#83=IFCINDEXEDPOLYGONALFACE((9,10,22,21));
#84=IFCINDEXEDPOLYGONALFACE((10,11,23,22));
#85=IFCINDEXEDPOLYGONALFACE((11,12,24,23));
#86=IFCINDEXEDPOLYGONALFACE((12,9,21,24));
#87=IFCPOLYGONALFACESET(#50,.T.,(#51,#52,#53,#54,#55,#56,#57,#58,#59,#60,#61,#62,#63,#64,#65,#66,#67,#68,#69,#70,#71,#72,#73,#74,#75,#76,#77,#78,#79,#80,#81,#82,#83,#84,#85,#86),$);
#88=IFCSHAPEREPRESENTATION(#3,'Body','Tessellation',(#87));
#89=IFCREPRESENTATIONMAP(#2,#88);
#90=IFCDIRECTION((1.,0.,0.));
#91=IFCDIRECTION((0.,1.,0.));
#92=IFCDIRECTION((0.,0.,1.));
#93=IFCCOLOURRGB($,0.55,0.55,0.55);
#94=IFCSURFACESTYLERENDERING(#93,0.,$,$,$,$,$,$,.FLAT.);
#95=IFCSURFACESTYLE($,.BOTH.,(#94));
#96=IFCCARTESIANPOINT((0.,0.,0.));
#97=IFCCARTESIANTRANSFORMATIONOPERATOR3D(#90,#91,#96,1.,#92);
#98=IFCMAPPEDITEM(#49,#97);
#99=IFCSTYLEDITEM(#98,(#95),$);
#100=IFCSHAPEREPRESENTATION(#3,'Body','MappedRepresentation',(#98));
#101=IFCPRODUCTDEFINITIONSHAPE($,$,(#100));
#102=IFCPLATE('0PlateAAAAAAAAAAAAAAAA0',$,'PLATE-A',$,$,#9,#101,'PLATE-A',.NOTDEFINED.);
#103=IFCCARTESIANPOINT((0.,300.,0.));
#104=IFCCARTESIANTRANSFORMATIONOPERATOR3D(#90,#91,#103,1.,#92);
#105=IFCMAPPEDITEM(#89,#104);
#106=IFCSTYLEDITEM(#105,(#95),$);
#107=IFCSHAPEREPRESENTATION(#3,'Body','MappedRepresentation',(#105));
#108=IFCPRODUCTDEFINITIONSHAPE($,$,(#107));
#109=IFCPLATE('0PlateBBBBBBBBBBBBBBBB0',$,'PLATE-B',$,$,#9,#108,'PLATE-B',.NOTDEFINED.);
#110=IFCSITE('2WWWWWWWWWWWWWWWWWWWWW',$,'Site',$,$,#7,$,$,.ELEMENT.,$,$,$,$,$);
#111=IFCBUILDING('2WWWWWWWWWWWWWWWWWWWWW',$,'Building',$,$,#8,$,$,.ELEMENT.,$,$,$);
#112=IFCLOCALPLACEMENT(#8,#2);
#113=IFCBUILDINGSTOREY('2WWWWWWWWWWWWWWWWWWWWW',$,'Undefined',$,$,#112,$,$,.ELEMENT.,0.);
#114=IFCPROJECT('2WWWWWWWWWWWWWWWWWWWWW',$,'dedup repro',$,$,$,$,(#3),#6);
#115=IFCRELAGGREGATES('2WWWWWWWWWWWWWWWWWWWWW',$,$,$,#114,(#110));
#116=IFCRELAGGREGATES('2WWWWWWWWWWWWWWWWWWWWW',$,$,$,#110,(#111));
#117=IFCRELAGGREGATES('2WWWWWWWWWWWWWWWWWWWWW',$,$,$,#111,(#113));
#118=IFCRELCONTAINEDINSPATIALSTRUCTURE('2WWWWWWWWWWWWWWWWWWWWW',$,$,$,(#102,#109),#113);
ENDSEC;
END-ISO-10303-21;
